# xmcd
#
# Track frame offsets:
#	150
#	13386
#	38208
#	51710
#	67876
#	78721
#	96300
#	117501
#	132951
#	146050
#
# Disc length: 2134 seconds
#
# Revision: 0
# Processed by: cddbd v1.5.2PL0 Copyright (c) Steve Scherf et al.
# Submitted via: EasyCDDAExtractor 8.2.3.1
#
DISCID=9a08540a
DTITLE=Lance Aldrich
DYEAR=2006
DGENRE=country
TTITLE0=In My Heart To Stay
TTITLE1=What Could Be
TTITLE2=Friday Night In Texas
TTITLE3=For The Rest Of My Life
TTITLE4=The Lake
TTITLE5=Vegas
TTITLE6=The Buckle
TTITLE7=The Only Thing I Have Left
TTITLE8=Crystal Beach
TTITLE9=The City Beat Me Back Home
EXTD=
EXTT0=
EXTT1=
EXTT2=
EXTT3=
EXTT4=
EXTT5=
EXTT6=
EXTT7=
EXTT8=
EXTT9=
PLAYORDER=
